<?xml version="1.0" standalone="no"?>
<!DOCTYPE svg PUBLIC "-//W3C//DTD SVG 20010904//EN"
 "http://www.w3.org/TR/2001/REC-SVG-20010904/DTD/svg10.dtd">
<svg version="1.0" xmlns="http://www.w3.org/2000/svg"
 width="150.000000pt" height="150.000000pt" viewBox="0 0 150.000000 150.000000"
 preserveAspectRatio="xMidYMid meet">
<metadata>
Created by potrace 1.14, written by Peter Selinger 2001-2017
</metadata>
<g transform="translate(0.000000,150.000000) scale(0.100000,-0.100000)"
fill="#000000" stroke="none">
<path d="M60 1043 c0 -3 25 -69 56 -147 31 -77 84 -211 117 -296 34 -85 62
-157 64 -159 4 -6 89 -5 100 2 5 3 31 60 58 126 27 67 50 119 52 118 1 -2 26
-59 55 -128 l53 -124 48 1 c26 0 49 3 51 5 3 3 130 318 226 560 l18 45 -63 1
c-43 0 -65 -4 -69 -12 -2 -7 -32 -89 -66 -182 -33 -92 -64 -175 -67 -183 -3
-8 -7 -19 -9 -25 -1 -5 -7 -23 -14 -40 -12 -30 -12 -29 -51 67 -40 101 -40
105 -10 173 16 34 71 186 71 194 0 4 -23 7 -52 7 l-52 -1 -32 -93 c-17 -51
-33 -95 -36 -97 -2 -2 -19 40 -38 94 l-33 98 -54 0 c-29 0 -53 -2 -53 -3 0 -2
23 -65 51 -139 l51 -136 -38 -97 c-21 -53 -39 -92 -41 -87 -2 6 -41 111 -86
234 l-83 224 -62 3 c-34 2 -62 0 -62 -3z"/>
<path d="M1130 1035 c-47 -15 -98 -61 -117 -106 -15 -36 -9 -120 11 -151 20
-31 78 -60 171 -88 130 -38 163 -76 114 -129 -20 -21 -28 -23 -92 -18 -49 4
-88 15 -129 35 -63 31 -63 31 -92 -26 -20 -39 -17 -46 36 -73 130 -66 324 -54
389 25 18 20 34 74 33 106 -3 65 -6 75 -42 110 -30 30 -56 44 -127 65 -50 14
-105 33 -122 41 -31 14 -35 22 -35 59 0 30 2 35 30 48 41 20 113 14 172 -15
l51 -26 25 39 c30 49 30 51 -6 72 -76 45 -185 58 -270 32z"/>
</g>
</svg>
